<?xml version="1.0" encoding="utf-8"?>
<!-- Generator: Adobe Illustrator 22.1.0, SVG Export Plug-In . SVG Version: 6.00 Build 0)  -->
<svg version="1.1" id="Layer_1" focusable="false" xmlns="http://www.w3.org/2000/svg" xmlns:xlink="http://www.w3.org/1999/xlink"
	 x="0px" y="0px" viewBox="0 0 150 150" style="enable-background:new 0 0 150 150;" xml:space="preserve">
<style type="text/css">
	.st0{fill:#FF0000;}
	.st1{fill:#ECC94B;}
	.st2{fill:#F7FAFC;}
	.st3{fill:#6C738A;}
</style>
<g>
	<path class="st0" d="M117.8,38.5H46.7c-3.4,0-6.2,2.8-6.2,6.2v9.9v10.5h1.8c5.4,0,10.8,1.7,15.2,5c3.2,2.2,5.7,4.2,7.5,5.5
		c3,2.2,3.6,6.5,1.5,9.4l-0.1,0.1c-1.5,1.8-3.6,2.8-5.8,2.6l7.1,7.1c1.1,1.2,1.7,2.6,1.7,4.2c0,1.6-0.5,3-1.7,4.2
		c-0.4,0.5-1.1,0.9-1.7,1.2c0.4,0.8,0.7,1.7,0.7,2.6c0,1.6-0.5,3-1.7,4.2c-1.2,1.1-2.6,1.7-4.2,1.7c-0.9,0-1.8-0.3-2.6-0.7
		c-0.5,1.8-2.2,3.2-4.1,3.4c-2.4-0.3-4-0.9-4-0.9s0.3,3.2-1.8,4.2c-0.1,0-0.1,0.1-0.3,0.1c-4.2,1.6-6.7-1.5-6.7-1.5l-0.4-0.4
		c0.8,2.5,3.2,4.5,5.9,4.5h71.1c3.4,0,6.2-2.8,6.2-6.2v-63v-0.7v-7.4C124,41.3,121.2,38.5,117.8,38.5z"/>
	<path class="st1" d="M42.4,69.6c4.6,0,9.1,1.5,12.8,4.2c3.2,2.4,5.7,4.2,7.5,5.7c1.2,0.8,1.3,2.5,0.5,3.6l-0.1,0.1
		c-0.8,1.1-2.2,1.3-3.3,0.7l-8-5.1c-1.1-0.7-2.4-0.4-3.2,0.5c-0.8,0.9-0.7,2.4,0.1,3.2l16.1,16.1c0.4,0.4,0.5,0.8,0.5,1.3
		c0,0.5-0.1,0.9-0.5,1.3c-0.4,0.4-0.8,0.5-1.3,0.5c-0.4,0-0.8-0.1-1.2-0.4l-8-8l-0.1-0.1l-0.8-0.8c-0.8-0.8-2.1-0.8-2.9,0
		c-0.8,0.8-0.8,2.1,0,2.9l9,9c0.1,0.1,0.1,0.1,0.3,0.3l2.4,2.4c0.4,0.4,0.5,0.8,0.5,1.3s-0.1,0.9-0.5,1.3c-0.4,0.4-0.8,0.5-1.3,0.5
		c-0.5,0-0.9-0.1-1.3-0.5l-2.4-2.4c-0.1-0.1-0.1-0.1-0.3-0.3l-7.9-7.9l-0.1-0.1L47.9,98c-0.8-0.8-2.1-0.8-2.9,0
		c-0.8,0.8-0.8,2.1,0,2.9l9.1,9.1c0.5,0.8,0.5,1.8-0.1,2.5c-0.7,0.7-1.8,0.7-2.6,0l-2.6-2.6c-0.1-0.1-0.1-0.1-0.3-0.3l-5.1-5.4
		l-0.1-0.1l-0.8-0.8c-0.8-0.8-2.1-0.8-2.9,0c-0.8,0.8-0.8,2.1,0,2.9l6.2,6.2c0.3,0.3,0.4,0.7,0.4,1.2c0,0.5-0.1,0.9-0.5,1.3
		c-0.4,0.4-0.8,0.5-1.3,0.5s-0.9-0.1-1.3-0.5L32,103.9l-5.1-5.1c-3.2-3.2-5-7.6-5-12.1v-3l14-14H42.4z M27.8,63l4.4,4.4L19.2,80.3
		l-4.4-4.4L27.8,63z M0.2,35.5L24.7,60L11.8,72.9l-8.7-8.7c-0.8-0.8-2.1-0.8-2.9,0V35.5z"/>
	<path class="st2" d="M89.5,98.4h20c1.2,0,2.1,0.9,2.1,2.1c0,1.2-0.9,2.1-2.1,2.1h-20c-1.2,0-2.1-0.9-2.1-2.1
		C87.3,99.3,88.3,98.4,89.5,98.4z"/>
	<path class="st2" d="M98.7,105.1h10.9c1.2,0,2.1,0.9,2.1,2.1s-0.9,2.1-2.1,2.1H98.7c-1.2,0-2.1-0.9-2.1-2.1S97.5,105.1,98.7,105.1z
		"/>
	<path class="st2" d="M92.1,105.1c1.2,0,2.1,0.9,2.1,2.1s-0.9,2.1-2.1,2.1c-1.2,0-2.1-0.9-2.1-2.1S90.9,105.1,92.1,105.1z"/>
	<path class="st2" d="M52.3,60.8h26.4c0.8,0,1.6-0.7,1.6-1.6v-6.6c0-0.8-0.7-1.6-1.6-1.6H52.3c-0.8,0-1.6,0.7-1.6,1.6v6.6
		C50.7,60.1,51.5,60.8,52.3,60.8z"/>
	<path class="st3" d="M15.1,75.5L28,62.6l4.2,4.2L19.3,79.8L15.1,75.5z M42.7,69.2c4.6,0,9.1,1.5,12.7,4.2c3,2.4,5.7,4.2,7.5,5.5
		c1.1,0.8,1.3,2.4,0.5,3.6l-0.1,0.1c-0.8,1.1-2.2,1.3-3.3,0.7L52,78.2c-1.1-0.7-2.4-0.4-3.2,0.5c-0.8,0.9-0.7,2.4,0.1,3.2l16,16
		c0.4,0.4,0.5,0.8,0.5,1.3s-0.1,0.9-0.5,1.3c-0.4,0.4-0.8,0.5-1.3,0.5c-0.4,0-0.8-0.1-1.2-0.4l-8-8l-0.1-0.1l-0.8-0.8
		c-0.8-0.8-2.1-0.8-2.9,0c-0.8,0.8-0.8,2.1,0,2.9l8.8,8.8c0.1,0.1,0.1,0.1,0.3,0.3L62,106c0.4,0.4,0.5,0.8,0.5,1.3s-0.1,0.9-0.5,1.3
		c-0.4,0.4-0.8,0.5-1.3,0.5c-0.5,0-0.9-0.1-1.3-0.5l-2.4-2.4c-0.1-0.1-0.1-0.1-0.3-0.3l-7.9-7.9L48.7,98l-0.8-0.8
		c-0.8-0.8-2.1-0.8-2.9,0c-0.8,0.8-0.8,2.1,0,2.9l9,9c0.5,0.7,0.5,1.7-0.1,2.4c-0.7,0.7-1.8,0.7-2.6,0l-2.6-2.6
		c-0.1-0.1-0.1-0.1-0.3-0.3l-5-5l-0.1-0.1l-0.8-0.8c-0.8-0.8-2.1-0.8-2.9,0c-0.8,0.8-0.8,2.1,0,2.9l6.1,6.1c0.3,0.3,0.4,0.7,0.4,1.2
		c0,0.5-0.1,0.9-0.5,1.3c-0.4,0.4-0.8,0.5-1.3,0.5s-0.9-0.1-1.3-0.5L32,103.2l-5.1-5.1c-3.2-3.2-5-7.5-5-12.1v-3l13.8-13.8
		L42.7,69.2z M58.1,112.5c0.8,0.4,1.7,0.7,2.6,0.7c1.6,0,3-0.7,4.2-1.7c1.2-1.2,1.7-2.6,1.7-4.2c0-0.9-0.3-1.8-0.7-2.6
		c0.7-0.3,1.3-0.7,1.7-1.2c1.2-1.2,1.7-2.6,1.7-4.2c0-1.6-0.7-3-1.7-4.2l-7.1-7.1c2.2,0.1,4.4-0.8,5.8-2.6l0.1-0.1
		c2.1-2.9,1.6-7.1-1.5-9.4c-1.8-1.3-4.4-3.3-7.5-5.5c-4.4-3.3-9.8-5-15.2-5h-6.3l-9.6-9.6l-4.1-4.1L3.5,32.7c-0.8-0.8-2.1-0.8-2.9,0
		c-0.8,0.8-0.8,2.1,0,2.9L25,60L12.1,72.9l-8.6-8.6c-0.8-0.8-2.1-0.8-2.9,0c-0.8,0.8-0.8,2.1,0,2.9l17.1,17.1v1.8
		c0,2.9,0.5,5.7,1.7,8.3c0.7,1.5,7,9.2,7,9.2l2.5,2.5l12.3,11.6c0,0,2.5,3,6.7,1.5c0.1,0,0.1-0.1,0.3-0.1c2.1-1.1,1.8-4.2,1.8-4.2
		s1.6,0.7,4,0.9C55.8,115.6,57.6,114.3,58.1,112.5z"/>
</g>
</svg>
