<svg xmlns="http://www.w3.org/2000/svg" viewBox="0 0 128 127.99"><defs><style>.cls-1{fill:#e20745;}.cls-2{fill:#fff;}</style></defs><title>Fav IconAsset 12</title><g id="Layer_2" data-name="Layer 2"><g id="Layer_1-2" data-name="Layer 1"><rect class="cls-1" width="128" height="127.99"/><path class="cls-2" d="M38,52.09c-7.15,0-14.31,0-21.45,0-.66,0-1.12.07-1.18-.91-.37-6.68-4-11.12-10-13.43A25.09,25.09,0,0,0,0,36.35V18.49a51,51,0,0,1,17.23,3.44c9.21,3.66,16.4,9.57,20.05,19.12a29.13,29.13,0,0,1,1.81,9.87C39.1,51.73,39,52.1,38,52.09Z"/><path class="cls-2" d="M40,94.15a26.27,26.27,0,0,0-.16,4.61,5.26,5.26,0,0,1-.12,1.63c-1,8.36-5.24,14.68-11.9,19.54s-14.06,7.15-22,8l-.23,0H0V110.7a28.37,28.37,0,0,0,8.17-1.63c6.81-2.45,10.07-8.81,7.83-15.2a11.31,11.31,0,0,0-5.9-6.29A49.13,49.13,0,0,0,0,83.89V64.26c6.57,1.56,13.16,3,19.45,5.6a43.56,43.56,0,0,1,11.48,6.67,24,24,0,0,1,8.7,15.62c0,.27-.12.65.33.75Z"/><path class="cls-2" d="M128,101v26.9q-37.15,0-74.34,0c-1.66,0-1.52-.58-1.52-1.37q0-29.59,0-59.18c0-17,0-24.89,0-41.92H81.29l-.08,73.85c0,1.4.52,1.72,2.42,1.72Q105.82,100.95,128,101Z"/><path class="cls-2" d="M52.13,23.41c0-4.09,0-17,0-21.07C52.11.51,52.48,0,54.18,0Q66.8.15,79.42,0S81.3.05,81.3.43Z"/></g></g></svg>