<?xml version="1.0" encoding="utf-8"?>
<!-- Generator: Adobe Illustrator 22.1.0, SVG Export Plug-In . SVG Version: 6.00 Build 0)  -->
<svg version="1.1" id="Layer_1" xmlns="http://www.w3.org/2000/svg" xmlns:xlink="http://www.w3.org/1999/xlink" x="0px" y="0px"
	 viewBox="0 0 855.7 110.5" style="enable-background:new 0 0 855.7 110.5;" xml:space="preserve">
<style type="text/css">
	.st0{fill:#D60034;}
	.st1{fill:#141215;}
</style>
<g transform="translate(0 0)">
	<path class="st0" d="M65.2,26.7c-2.4-2.6-5.3-4.8-8.4-6.5c-3.3-1.9-7.9-2.8-13.6-2.8c-6.3,0-11.2,1.2-14.5,3.7
		c-3.2,2.2-5.1,5.9-5,9.8c0,1.5,0.3,2.9,0.9,4.3c0.8,1.8,2.1,3.3,3.7,4.5c2.4,1.8,5.1,3.1,8,3.9L58.2,50c8.7,2.6,15,6.4,18.8,11.4
		c3.8,5.1,5.9,11.3,5.8,17.7c0.1,6-1.6,11.8-5,16.8c-3.5,4.9-8.4,8.7-14.1,10.9c-6.1,2.5-13.3,3.8-21.7,3.8
		c-5.8,0-11.6-0.7-17.3-2.1c-5-1.3-9.8-3.4-14.2-6.2c-3.9-2.6-7.3-5.9-10-9.8C0.1,91.7-0.1,91,0,90.3c0.2-0.7,0.7-1.4,1.4-1.8
		l8.9-6.2c0.8-0.6,1.7-0.9,2.6-0.9c0.6,0.1,1.2,0.5,1.6,1c2.1,2.7,4.4,5.2,7,7.5c2.4,2,5.1,3.4,8,4.3c3.6,1,7.3,1.5,11.1,1.4
		c6.6,0,11.9-1.1,15.9-3.3c3.9-2,6.2-6.1,6-10.4c0-1.8-0.4-3.6-1.2-5.2c-1-1.7-2.3-3.2-4-4.3c-2.5-1.6-5.2-2.9-8-3.7L28,62.1
		c-4.9-1.4-9.5-3.7-13.6-6.9c-3.4-2.7-6.1-6.1-8-10c-1.8-3.7-2.7-7.7-2.7-11.8C3.6,27.7,5.3,22,8.5,17.3c3.4-4.9,8.2-8.7,13.6-11
		c6.5-2.8,13.5-4.1,20.6-4c4.9,0,9.7,0.6,14.4,1.8c4.3,1.1,8.4,2.8,12.2,5c3.5,2,6.5,4.7,9,7.8c0.4,0.4,0.7,1,0.9,1.5
		c0.2,0.5-0.1,1.1-0.9,1.8l-10.1,7.5c-0.4,0.3-0.9,0.5-1.3,0.4C66.3,27.8,65.7,27.3,65.2,26.7z M134.2,2.3c5,0,10,0.8,14.8,2.3
		c4.5,1.5,8.7,3.7,12.5,6.5c3.6,2.7,6.7,6,9.1,9.7c2.3,3.6,3.9,7.7,4.7,11.9c0.3,0.8,0.3,1.7,0.1,2.6c-0.4,0.4-0.9,0.7-1.5,0.7
		l-16.2,1.1c-0.8,0-1.2-0.2-1.4-0.5c-0.2-0.5-0.4-1-0.6-1.5c-0.9-4.9-3.4-9.5-7-13c-3.5-3.4-8.1-5-13.9-5c-8,0-14.3,3.1-18.7,9.4
		s-6.7,16.1-6.7,29.5c0,13.3,2.2,23,6.5,29.3c4.3,6.2,10.8,9.4,19.4,9.4c5.3,0.2,10.6-1.4,15.1-4.3c4.2-2.9,7.6-7.7,10.2-14.6
		c0.3-0.8,1.1-1,2.6-0.7l12.1,2.6c0.4,0.1,0.8,0.4,1.1,0.7c0.3,0.4,0.4,1.2,0.2,2.4c-0.7,2.5-1.7,5-3,7.2c-1.6,2.8-3.4,5.5-5.5,8
		c-2.4,2.8-5.2,5.2-8.3,7.2c-3.5,2.3-7.2,4-11.1,5.3c-4.6,1.4-9.3,2.1-14.1,2c-9.7,0-18-2.3-25.1-6.8C102.1,99,96.4,92.4,93,84.6
		c-3.8-8.2-5.7-17.8-5.7-28.8c0-11.1,1.9-20.6,5.7-28.5c3.5-7.6,9.1-14,16.2-18.5C116.2,4.5,124.5,2.3,134.2,2.3z M230,110.5
		c-9.8,0-18.2-2.1-25.3-6.4c-7.2-4.4-12.9-10.8-16.4-18.5c-3.8-8-5.8-17.7-5.8-28.8c0-11.4,1.9-21.1,5.8-29.3
		c3.5-7.7,9.3-14.3,16.5-18.7c7.1-4.4,15.5-6.5,25.1-6.5s18,2.2,25.1,6.5c7.2,4.5,12.9,11,16.4,18.7c3.9,8.1,5.8,17.8,5.8,29.2
		c0,11.2-1.9,20.8-5.8,28.8c-3.5,7.7-9.2,14.1-16.4,18.5C248.1,108.4,239.7,110.5,230,110.5L230,110.5z M230.2,95.5
		c8.5,0,14.8-3.1,19-9.2c4.1-6.1,6.2-15.9,6.2-29.3c0-13.7-2.1-23.8-6.2-30.2c-4.2-6.4-10.5-9.6-19-9.6c-8.6,0-15,3.2-19.2,9.6
		c-4.2,6.4-6.3,16.4-6.3,30.2c0,13.3,2.1,23.1,6.3,29.3S221.5,95.5,230.2,95.5L230.2,95.5z M371.7,35.8c0,7-1.6,12.9-4.9,17.5
		c-3.4,4.8-8,8.4-13.4,10.6c-6.3,2.5-13.1,3.7-19.9,3.5h-22.3c-0.7-0.1-1.3,0.4-1.4,1.1c0,0.1,0,0.2,0,0.4v37.4c0,1.9-1,2.8-3.1,2.8
		h-15.3c-0.7,0.1-1.4-0.2-2-0.6c-0.4-0.5-0.6-1.2-0.6-1.9V6.1c0-1.6,0.7-2.4,2.1-2.4h40.2c7-0.1,14,1.1,20.6,3.4
		c5.8,2,10.9,5.7,14.6,10.5C369.9,22.4,371.7,28.4,371.7,35.8L371.7,35.8z M350.1,35.4c0.2-3.3-0.7-6.6-2.5-9.4
		c-1.7-2.5-4.2-4.3-7.1-5.3c-3.4-1.2-7-1.8-10.6-1.7h-17.8c-1.6,0-2.4,0.8-2.4,2.3v28.7c0,1.6,0.6,2.4,1.8,2.4h19.2
		c5.9,0,10.6-1.4,14.1-4.3C348.4,45.1,350.2,40.9,350.1,35.4z M382.1,6.1c0-1.6,0.7-2.4,2.1-2.4h68.9c1.2,0,1.8,0.7,1.8,2.1v10.8
		c0,1.8-0.9,2.7-2.6,2.7h-46.9c-1.6,0-2.4,0.7-2.4,2v24.8c0,1.4,0.7,2.1,2,2.1h32.4c1-0.1,2,0.6,2.1,1.6c0,0.2,0,0.4,0,0.5v11.5
		c0,0.4-0.1,0.9-0.4,1.2c-0.4,0.4-1,0.6-1.6,0.5H405c-1.2,0-1.8,0.6-1.8,1.7v26.4c0,1.1,0.5,1.7,1.6,1.7h49.7c1.5,0,2.3,0.7,2.3,2
		V107c0,0.6-0.2,1.1-0.6,1.5c-0.5,0.5-1.2,0.7-1.8,0.6h-69.4c-1.8,0-2.7-0.9-2.7-2.6L382.1,6.1z"/>
	<path class="st1" d="M556.6,23.1h20v84c0,1.1-0.9,2-2,2h-16c-1.1,0-2-0.9-2-2V23.1z"/>
	<path class="st0" d="M556.4,0.6h21.2l-21.2,21.2V0.6z"/>
	<path class="st1" d="M472.8,6.1c0-1.6,0.7-2.4,2.1-2.4h16.9c1.3,0,2,0.8,2,2.3v85.8c0,1.1,0.5,1.7,1.6,1.7H542c1.5,0,2.3,0.7,2.3,2
		V107c0,0.6-0.2,1.1-0.6,1.5c-0.5,0.5-1.2,0.7-1.8,0.6h-66.3c-0.8,0.1-1.5-0.1-2.1-0.6c-0.4-0.5-0.6-1.2-0.6-1.9V6.1z M672.5,3.7
		c1.1,0,1.7,0.7,1.7,2V107c0,0.6-0.2,1.2-0.6,1.6c-0.5,0.4-1.1,0.6-1.8,0.6H660c-0.6,0-1.1-0.1-1.7-0.2c-0.7-0.3-1.3-0.8-1.7-1.3
		l-48.6-69c-0.4-0.6-0.7-0.8-1.1-0.7s-0.5,0.4-0.5,0.9v68.2c0.1,1.5-0.7,2.3-2.4,2.3h-12.5c-1.7,0-2.6-0.8-2.6-2.3V6.1
		c0-1.6,0.8-2.4,2.3-2.4h14.2c0.7,0,1.5,0.1,2.1,0.4c0.6,0.4,1.2,0.9,1.6,1.5l45.7,65.9c0.6,0.8,1.1,1.1,1.5,0.9s0.6-0.6,0.6-1.3V6
		c-0.2-1.1,0.6-2.1,1.7-2.3c0.2,0,0.4,0,0.6,0L672.5,3.7z M774.9,106.1c0.4,0.7,0.5,1.4,0.3,2.1c-0.2,0.6-0.8,0.9-1.7,0.9h-17.9
		c-1.8,0-3-0.6-3.5-1.8l-25.8-47.4c-0.7-0.9-1.5-0.8-2.4,0.4l-13.9,16.3c-0.7,0.8-1,1.8-1,2.8v26.8c0,1.9-1.1,2.8-3.3,2.8h-14.9
		c-0.8,0.1-1.6-0.1-2.2-0.6c-0.5-0.5-0.7-1.2-0.6-1.9V6c0-1.5,0.7-2.3,2-2.3h17c1.3,0,2,0.7,2,2.1v45.7c0,0.9,0.1,1.3,0.4,1.3
		c0.5-0.1,0.9-0.3,1.1-0.7L749,5.7c0.4-0.7,0.9-1.2,1.6-1.6c0.8-0.3,1.7-0.5,2.6-0.4h14.5c0.8-0.1,1.6,0.2,2.2,0.9
		c0.4,0.6,0.3,1.2-0.4,2l-29.3,33.7c-0.7,0.8-0.7,2-0.1,2.8L774.9,106.1z M838.1,26.7c-2.4-2.6-5.3-4.8-8.4-6.5
		c-3.3-1.9-7.9-2.8-13.6-2.8c-6.3,0-11.2,1.2-14.5,3.7c-3.2,2.2-5.1,5.9-5,9.8c0,1.5,0.3,2.9,0.9,4.3c0.8,1.8,2.1,3.3,3.7,4.5
		c2.4,1.8,5.1,3.1,8,3.9l21.9,6.5c8.7,2.6,15,6.4,18.8,11.4c3.8,5.1,5.9,11.3,5.8,17.7c0.1,6-1.6,11.8-5,16.8
		c-3.5,4.9-8.4,8.7-14.1,10.9c-6.1,2.5-13.3,3.8-21.7,3.8c-5.8,0-11.6-0.7-17.3-2.1c-5-1.3-9.8-3.4-14.2-6.2
		c-3.9-2.6-7.3-5.9-10-9.8c-0.4-0.6-0.6-1.3-0.5-2.1c0.2-0.7,0.7-1.4,1.3-1.8l8.9-6.2c0.8-0.6,1.7-0.9,2.6-0.9
		c0.6,0.1,1.2,0.5,1.6,1c2.1,2.7,4.4,5.2,7,7.5c2.4,2,5.1,3.4,8,4.3c3.6,1,7.3,1.5,11.1,1.4c6.6,0,11.9-1.1,15.9-3.3
		c3.9-2,6.2-6.1,6-10.4c0-1.8-0.4-3.6-1.2-5.2c-1-1.7-2.3-3.2-4-4.3c-2.5-1.6-5.2-2.9-8-3.7l-21.4-6.5c-4.9-1.4-9.5-3.7-13.6-6.9
		c-3.4-2.7-6.1-6.1-8-10c-1.8-3.7-2.7-7.7-2.7-11.8c-0.1-5.7,1.6-11.4,4.8-16.1c3.4-4.9,8.2-8.7,13.6-11c6.5-2.8,13.5-4.1,20.6-4
		c4.9,0,9.7,0.6,14.4,1.8c4.3,1.1,8.4,2.8,12.2,5c3.5,2,6.5,4.7,9,7.8c0.4,0.4,0.7,1,0.9,1.5c0.2,0.5-0.1,1.1-0.9,1.8l-10.1,7.5
		c-0.4,0.3-0.9,0.5-1.3,0.4C839.1,27.8,838.5,27.3,838.1,26.7z"/>
</g>
</svg>
