<svg xmlns="http://www.w3.org/2000/svg" width="855.659" height="120.515" viewBox="0 0 855.659 120.515"><defs><style>.a{fill:#d60034;}.b{fill:#141215;}</style></defs><g transform="translate(0 0)"><path class="a" d="M70.574-82.36A34.736,34.736,0,0,0,62.2-88.892q-4.97-2.84-13.632-2.84-9.514,0-14.484,3.692a11.615,11.615,0,0,0-4.97,9.8,11.356,11.356,0,0,0,.923,4.26,11.531,11.531,0,0,0,3.692,4.473,25.809,25.809,0,0,0,8.023,3.9l21.868,6.532Q76.68-55.238,82.431-47.641a28.478,28.478,0,0,1,5.751,17.679,28.475,28.475,0,0,1-4.97,16.756A31.2,31.2,0,0,1,69.154-2.343Q60.066,1.42,47.428,1.42A67.039,67.039,0,0,1,30.175-.71a47.233,47.233,0,0,1-14.2-6.248,35.939,35.939,0,0,1-10.011-9.8,2.729,2.729,0,0,1-.5-2.059A3.254,3.254,0,0,1,6.816-20.59l8.946-6.248a4.477,4.477,0,0,1,2.627-.852,2.632,2.632,0,0,1,1.633.994,49.078,49.078,0,0,0,7.029,7.455,23.086,23.086,0,0,0,8.023,4.331A37.5,37.5,0,0,0,46.15-13.49q9.94,0,15.9-3.337a11.134,11.134,0,0,0,5.964-10.437,11.149,11.149,0,0,0-1.207-5.183,12.546,12.546,0,0,0-3.976-4.331,29.8,29.8,0,0,0-8.023-3.692L33.37-47a40.1,40.1,0,0,1-13.561-6.887A28.788,28.788,0,0,1,11.786-63.9a27.162,27.162,0,0,1-2.7-11.786A27.78,27.78,0,0,1,13.916-91.8a32.069,32.069,0,0,1,13.632-11,49.628,49.628,0,0,1,20.59-3.976,56.453,56.453,0,0,1,14.413,1.775,46.982,46.982,0,0,1,12.212,5.041,32.292,32.292,0,0,1,9.017,7.81,5.265,5.265,0,0,1,.852,1.491q.284.781-.852,1.775L73.7-81.366a1.4,1.4,0,0,1-1.349.355A5.522,5.522,0,0,1,70.574-82.36Zm69.012-24.424a45.97,45.97,0,0,1,14.768,2.343,43.616,43.616,0,0,1,12.5,6.532,37.618,37.618,0,0,1,9.088,9.727,32.417,32.417,0,0,1,4.686,11.928A4.168,4.168,0,0,1,180.7-73.7a1.94,1.94,0,0,1-1.491.71l-16.188,1.136q-1.136,0-1.42-.5a7.063,7.063,0,0,1-.568-1.491,24.659,24.659,0,0,0-6.958-12.993q-5.254-5.041-13.916-5.041-12.07,0-18.744,9.372t-6.674,29.536q0,19.88,6.461,29.252t19.383,9.372a25.762,25.762,0,0,0,15.052-4.331Q161.88-23,165.856-33.228q.426-1.136,2.556-.71l12.07,2.556a2.12,2.12,0,0,1,1.065.71q.5.568.213,2.414a33.587,33.587,0,0,1-2.982,7.242,44.838,44.838,0,0,1-5.538,7.952,40.239,40.239,0,0,1-8.307,7.242A44.044,44.044,0,0,1,153.786-.568,46.266,46.266,0,0,1,139.728,1.42q-14.484,0-25.063-6.816A44.137,44.137,0,0,1,98.406-24.5q-5.68-12.283-5.68-28.755,0-16.614,5.68-28.542a42.82,42.82,0,0,1,16.188-18.46Q125.1-106.784,139.586-106.784Zm95.85,108.2q-14.626,0-25.276-6.39a41.92,41.92,0,0,1-16.4-18.46q-5.751-12.07-5.751-28.826,0-17.04,5.822-29.252A43.111,43.111,0,0,1,210.3-100.252q10.65-6.532,25.134-6.532t25.063,6.532a43.339,43.339,0,0,1,16.4,18.673q5.822,12.141,5.822,29.181,0,16.756-5.751,28.826a42.365,42.365,0,0,1-16.4,18.531Q249.92,1.42,235.436,1.42Zm.142-15.052q12.78,0,18.957-9.159t6.177-29.323q0-20.59-6.248-30.175t-19.028-9.585q-12.922,0-19.241,9.585t-6.319,30.175q0,20.022,6.319,29.252T235.578-13.632Zm141.574-59.64q0,10.508-4.9,17.537a29.962,29.962,0,0,1-13.419,10.579,51.409,51.409,0,0,1-19.88,3.55H316.66a1.255,1.255,0,0,0-1.42,1.42V-2.84q0,2.84-3.124,2.84H296.78a2.567,2.567,0,0,1-1.988-.639,2.81,2.81,0,0,1-.568-1.917V-102.95q0-2.414,2.13-2.414H336.54a59.085,59.085,0,0,1,20.59,3.408,31.609,31.609,0,0,1,14.626,10.508Q377.152-84.348,377.152-73.272ZM355.568-73.7a16.368,16.368,0,0,0-2.485-9.443,14.346,14.346,0,0,0-7.1-5.325,30.43,30.43,0,0,0-10.579-1.7h-17.75q-2.414,0-2.414,2.272v28.684q0,2.414,1.846,2.414h19.17q8.8,0,14.058-4.331T355.568-73.7Zm31.95-29.252q0-2.414,2.13-2.414h68.87q1.846,0,1.846,2.13v10.792q0,2.7-2.556,2.7h-46.86q-2.414,0-2.414,1.988v24.85q0,2.13,1.988,2.13H442.9a1.883,1.883,0,0,1,2.13,2.13v11.5a1.792,1.792,0,0,1-.426,1.207,1.99,1.99,0,0,1-1.562.5H410.38q-1.846,0-1.846,1.7v26.412q0,1.7,1.562,1.7h49.7q2.272,0,2.272,1.988v11.5A2.174,2.174,0,0,1,461.5-.639,2.358,2.358,0,0,1,459.654,0H390.216q-2.7,0-2.7-2.556Z" transform="translate(-5.418 119.095)"/><path class="b" d="M0,0H20V84a2,2,0,0,1-2,2H2a2,2,0,0,1-2-2Z" transform="translate(556.582 33.095)"/><path class="a" d="M15,0,30,15H0Z" transform="translate(545.836 21.213) rotate(-45)"/><path class="b" d="M11.218-102.95q0-2.414,2.13-2.414h16.9q1.988,0,1.988,2.272v85.768q0,1.7,1.562,1.7H80.372q2.272,0,2.272,1.988v11.5a2.174,2.174,0,0,1-.568,1.491A2.358,2.358,0,0,1,80.23,0H13.916a2.791,2.791,0,0,1-2.13-.639,2.811,2.811,0,0,1-.568-1.917ZM210.9-105.364q1.7,0,1.7,1.988V-2.13a1.983,1.983,0,0,1-.639,1.562A2.579,2.579,0,0,1,210.187,0H198.4a5.978,5.978,0,0,1-1.7-.213,4.243,4.243,0,0,1-1.7-1.349L146.429-70.574q-.568-.852-1.065-.71t-.5.852v68.16Q145.009,0,142.453,0h-12.5Q127.4,0,127.4-2.272V-102.95q0-2.414,2.272-2.414h14.2a4.944,4.944,0,0,1,2.13.355,4.944,4.944,0,0,1,1.562,1.491L193.289-37.63q.852,1.136,1.491.923t.639-1.349v-65.036a2.008,2.008,0,0,1,2.272-2.272ZM313.279-2.982a2.985,2.985,0,0,1,.284,2.13q-.284.852-1.7.852H293.967q-2.7,0-3.55-1.846L264.573-49.274q-.994-1.42-2.414.426l-13.916,16.33a4.157,4.157,0,0,0-.994,2.84V-2.84q0,2.84-3.266,2.84h-14.91a3.057,3.057,0,0,1-2.2-.639,2.6,2.6,0,0,1-.639-1.917V-103.092q0-2.272,1.988-2.272h17.04q1.988,0,1.988,2.13V-57.51q0,1.278.426,1.278a1.944,1.944,0,0,0,1.136-.71l38.624-46.434A4.093,4.093,0,0,1,289-104.938a5.933,5.933,0,0,1,2.556-.426h14.484a2.58,2.58,0,0,1,2.2.852q.639.852-.355,1.988L278.631-68.87a2.381,2.381,0,0,0-.142,2.84Zm63.19-79.378a34.736,34.736,0,0,0-8.378-6.532q-4.97-2.84-13.632-2.84-9.514,0-14.484,3.692a11.615,11.615,0,0,0-4.97,9.8,11.356,11.356,0,0,0,.923,4.26,11.53,11.53,0,0,0,3.692,4.473,25.809,25.809,0,0,0,8.023,3.9l21.868,6.532q13.064,3.834,18.815,11.431a28.478,28.478,0,0,1,5.751,17.679,28.475,28.475,0,0,1-4.97,16.756A31.2,31.2,0,0,1,375.049-2.343Q365.961,1.42,353.323,1.42A67.039,67.039,0,0,1,336.07-.71a47.233,47.233,0,0,1-14.2-6.248,35.939,35.939,0,0,1-10.011-9.8,2.729,2.729,0,0,1-.5-2.059,3.254,3.254,0,0,1,1.349-1.775l8.946-6.248a4.477,4.477,0,0,1,2.627-.852,2.632,2.632,0,0,1,1.633.994,49.078,49.078,0,0,0,7.029,7.455,23.086,23.086,0,0,0,8.023,4.331,37.5,37.5,0,0,0,11.076,1.42q9.94,0,15.9-3.337a11.135,11.135,0,0,0,5.964-10.437,11.149,11.149,0,0,0-1.207-5.183,12.546,12.546,0,0,0-3.976-4.331,29.8,29.8,0,0,0-8.023-3.692L339.265-47A40.1,40.1,0,0,1,325.7-53.889,28.788,28.788,0,0,1,317.681-63.9a27.162,27.162,0,0,1-2.7-11.786A27.78,27.78,0,0,1,319.811-91.8a32.069,32.069,0,0,1,13.632-11,49.627,49.627,0,0,1,20.59-3.976,56.453,56.453,0,0,1,14.413,1.775,46.982,46.982,0,0,1,12.212,5.041,32.292,32.292,0,0,1,9.017,7.81,5.266,5.266,0,0,1,.852,1.491q.284.781-.852,1.775l-10.082,7.526a1.4,1.4,0,0,1-1.349.355A5.522,5.522,0,0,1,376.469-82.36Z" transform="translate(461.582 119.095)"/></g></svg>